<svg width="36" height="25" viewBox="0 0 36 25" fill="none" xmlns="http://www.w3.org/2000/svg">
<g clip-path="url(#clip0_1936_123)">
<path d="M31.8951 0.479809C32.8674 0.541849 33.2821 1.72385 32.556 2.36158L19.0286 14.2363C18.4423 14.7512 17.5583 14.7512 16.9721 14.2363L3.44462 2.36158C2.71809 1.72385 3.13284 0.541849 4.1055 0.479809C7.52028 0.261457 12.7142 0 18.0001 0C23.2859 0 28.4803 0.261457 31.8951 0.479809Z" fill="#292929"/>
<path d="M35.6919 20.8558C35.5492 22.8253 33.9484 24.3889 31.942 24.5174C28.5276 24.7361 23.3099 25 18.0002 25C12.6906 25 7.47281 24.7361 4.05844 24.5174C2.05199 24.3889 0.451256 22.8249 0.308495 20.8558C0.150556 18.6763 0 15.7455 0 12.5004C0 8.94797 0.180503 5.77301 0.353211 3.5472C0.42254 2.65526 1.50268 2.22782 2.18162 2.82406L16.1767 15.1093C16.6965 15.5654 17.3479 15.7934 17.9998 15.7934C18.6517 15.7934 19.3031 15.5654 19.8229 15.1093L33.8184 2.82406C34.4977 2.22782 35.5775 2.65526 35.6468 3.5472C35.8195 5.77341 36 8.94797 36 12.5004C36 15.7455 35.8494 18.6763 35.6915 20.8558H35.6919Z" fill="#292929"/>
</g>
<defs>
<clipPath id="clip0_1936_123">
<rect width="36" height="25" fill="white"/>
</clipPath>
</defs>
</svg>
