<svg width="245" height="101" viewBox="0 0 245 101" fill="none" xmlns="http://www.w3.org/2000/svg">
<path d="M22.0758 49.3145C13.1904 49.3145 5.82947 46.6791 0 41.4156L7.26919 32.6311C11.9836 36.4448 17.072 38.3517 22.5486 38.3517C26.1409 38.3517 27.9335 37.2162 27.9335 34.9451C27.9335 33.9452 27.3971 33.1167 26.3173 32.4597C25.2375 31.8026 23.1273 31.1099 19.9938 30.3814C17.1214 29.7029 14.7572 29.0316 12.894 28.3746C11.0308 27.7175 9.21705 26.8319 7.43857 25.7178C5.66715 24.6037 4.35446 23.1896 3.5005 21.4613C2.64655 19.7329 2.2231 17.6689 2.2231 15.2621C2.2231 10.7699 3.87455 7.099 7.17039 4.26368C10.4662 1.42123 14.8983 0 20.4596 0C28.1805 0 34.6381 2.11399 39.8465 6.33482L33.3183 15.6692C28.9215 12.5339 24.5247 10.9699 20.1279 10.9699C18.6035 10.9699 17.439 11.2627 16.6274 11.8555C15.8228 12.4482 15.4135 13.2196 15.4135 14.1694C15.4135 15.2621 15.964 16.1191 17.065 16.7548C18.1659 17.3904 20.3255 18.0689 23.5578 18.7973C29.479 20.1114 33.89 21.8755 36.7835 24.0752C39.6771 26.2749 41.1239 29.5101 41.1239 33.7809C41.1239 38.5945 39.3948 42.3869 35.9437 45.1579C32.4855 47.9289 27.8699 49.3145 22.0758 49.3145Z" fill="black"/>
<path d="M42.6695 48.4931L62.7268 0.478504H75.3102L95.3676 48.5003H81.3656L77.9356 39.9872H59.7626L56.3962 48.5003H42.6624L42.6695 48.4931ZM63.6019 29.6958H74.1669L68.9162 16.1406L63.6019 29.6958Z" fill="black"/>
<path d="M99.9479 48.4931V0.814171H113.004V36.9162H135.821V48.4931H99.9479Z" fill="black"/>
<path d="M137.642 48.4931L157.699 0.478504H170.283L190.34 48.5003H176.338L172.908 39.9872H154.735L151.369 48.5003H137.635L137.642 48.4931ZM158.574 29.6958H169.139L163.889 16.1406L158.574 29.6958Z" fill="black"/>
<path d="M194.92 48.4931V0.814171H208.718L219.96 19.2758L231.203 0.814171H245V48.4931H232.007V21.1113L219.96 39.7729H219.692L207.708 21.247V48.4931H194.92Z" fill="black"/>
<path d="M0 58.7774H16.091C23.4026 58.7774 29.1544 60.7057 33.3465 64.5694C37.5387 68.426 39.6347 73.4967 39.6347 79.7673C39.6347 86.0378 37.5104 91.0943 33.2548 95.058C29.0062 99.0217 23.205 101 15.8511 101H0V58.7774ZM11.5601 90.6229H16.2675C19.7609 90.6229 22.5557 89.6802 24.6447 87.7876C26.7266 85.895 27.7711 83.2454 27.7711 79.8244C27.7711 76.4035 26.7266 73.8538 24.6447 71.9255C22.5557 69.9972 19.768 69.0331 16.2675 69.0331H11.5601V90.6229Z" fill="black"/>
<path d="M45.8312 100.993V58.7774H57.4549V100.993H45.8312Z" fill="black"/>
<path d="M65.0769 100.993V58.7774H84.8025C90.879 58.7774 95.4099 60.2843 98.3882 63.2982C100.851 65.7907 102.086 69.1259 102.086 73.3111C102.086 79.503 99.228 83.8239 93.5044 86.2807L103.455 100.993H90.1027L81.6973 88.209H76.63V100.993H65.0699H65.0769ZM76.637 79.0388H84.2662C86.214 79.0388 87.7314 78.5889 88.8253 77.6819C89.9192 76.7749 90.4626 75.5179 90.4626 73.911C90.4626 72.3041 89.9192 71.0185 88.8253 70.1686C87.7314 69.3259 86.1929 68.9045 84.2097 68.9045H76.6441V79.0388H76.637Z" fill="black"/>
<path d="M107.93 100.993V58.7774H119.49V74.5752H134.332V58.7774H145.892V100.993H134.332V84.9523H119.49V100.993H107.93Z" fill="black"/>
<path d="M149.943 100.993L167.7 58.4774H178.843L196.6 100.993H184.207L181.165 93.4511H165.074L162.096 100.993H149.936H149.943ZM168.476 84.3452H177.834L173.183 72.3469L168.476 84.3452Z" fill="black"/>
<path d="M200.658 100.993V58.7774H212.874L222.825 75.118L232.776 58.7774H244.993V100.993H233.489V76.7463L222.825 93.2725H222.586L211.978 76.8677V100.993H200.658Z" fill="black"/>
</svg>
